# xmcd
# Track frame offsets:
# 150
# 16510
# 31743
# 43377
# 58085
# 72717
# 93651
# 109484
# 125093
# 140702
# 165911
# 182870
# 200954
# 221361
# 247544
# 265626
# 284983
# 303292
#
# Disc length: 4233 seconds
# Revision: 0
# Processed by: cddbd v1.5.1PL0 Copyright (c) Steve Scherf et al.
# Submitted via: VisiTrax 2.9.10.228 - For more info visit www.synapsa.com
#
DISCID=15108712
DTITLE=Martina McBride - Country Karaoke Classics  CKC002
DYEAR=1900
DGENRE=Karaoke
TTITLE0=McBride, Martina - Broken Wing, A
TTITLE1=McBride, Martina - Independence Day
TTITLE2=McBride, Martina - My Baby Loves Me
TTITLE3=McBride, Martina - Safe In The Arms Of Love
TTITLE4=McBride, Martina - Valentine
TTITLE5=McBride, Martina - Whatever You Say
TTITLE6=McBride, Martina - There You Are
TTITLE7=McBride, Martina - It's My Time
TTITLE8=McBride, Martina - When God Fearin' Women Get The Blues
TTITLE9=McBride, Martina - Love's The Only House
TTITLE10=McBride, Martina - Wild Angels
TTITLE11=McBride, Martina - She's A Butterfly
TTITLE12=McBride, Martina - Where Would You Be
TTITLE13=McBride, Martina - God's Will
TTITLE14=McBride, Martina - Blessed
TTITLE15=McBride, Martina - Concrete Angel
TTITLE16=McBride, Martina - This One's For The Girls
TTITLE17=Martina McBride - In My Daughter's Eyes
EXTD=
EXTT0=
EXTT1=
EXTT2=
EXTT3=
EXTT4=
EXTT5=
EXTT6=
EXTT7=
EXTT8=
EXTT9=
EXTT10=
EXTT11=
EXTT12=
EXTT13=
EXTT14=
EXTT15=
EXTT16=
EXTT17=
PLAYORDER=
